<?xml version="1.0" encoding="utf-8"?>
<!-- Generator: Adobe Illustrator 27.8.0, SVG Export Plug-In . SVG Version: 6.00 Build 0)  -->
<svg version="1.1" id="Layer_1" xmlns="http://www.w3.org/2000/svg" xmlns:xlink="http://www.w3.org/1999/xlink" x="0px" y="0px"
	 viewBox="0 0 1173.9 489.1" style="enable-background:new 0 0 1173.9 489.1;" xml:space="preserve">
<style type="text/css">
	.st0{fill:#3C3890;}
</style>
<polygon class="st0" points="273.8,145.2 273.8,3.4 300.3,3.4 300.3,124.4 349.5,124.4 349.5,145.2 "/>
<path class="st0" d="M423.6,46.5c0.2-12.7-0.9-25.2-15.5-25.2c-8.9,0-14.6,3.6-14.6,13.2c0,10.8,6.8,14.9,15.1,20.2
	c8.7,5.5,24.8,16.1,32.2,23.3c9.1,8.9,11.9,17.4,11.9,29.7c0,26.9-17.8,40.9-43.7,40.9c-31.8,0-43.1-17.8-43.1-43.1V95.1h26.5v8.3
	c-0.6,13.8,3.6,23.8,16.6,23.8c11.2,0,16.5-5.9,16.5-16.7c0-8.3-3.8-14-10.6-18.7c-13.8-10.8-31-18.5-41.8-32.7
	c-4.4-6.4-6.7-14-6.8-21.8c0-24.2,13.6-37.4,41.6-37.4c42.2,0,41,32.5,41.2,46.5L423.6,46.5L423.6,46.5z"/>
<polygon class="st0" points="479.2,145.2 479.2,3.4 553.8,3.4 553.8,24.2 505.7,24.2 505.7,60 550,60 550,80.8 505.7,80.8 
	505.7,124.4 553.8,124.4 553.8,145.2 "/>
<path class="st0" d="M327.9,216.8c0.2-12.7-0.9-25.2-15.5-25.2c-8.9,0-14.6,3.6-14.6,13.2c0,10.8,6.8,14.9,15.1,20.2
	c8.7,5.5,24.8,16.1,32.1,23.3c9.1,8.9,11.9,17.4,11.9,29.7c0,26.9-17.8,40.9-43.7,40.9c-31.8,0-43.1-17.8-43.1-43.1v-10.4h26.5v8.3
	c-0.6,13.8,3.6,23.8,16.6,23.8c11.2,0,16.5-5.9,16.5-16.6c0-8.3-3.8-14-10.6-18.7c-13.8-10.8-31-18.5-41.8-32.7
	c-4.4-6.4-6.7-14-6.8-21.8c0-24.2,13.6-37.4,41.6-37.4c42.2,0,41,32.5,41.2,46.5L327.9,216.8L327.9,216.8z"/>
<polygon class="st0" points="370.5,173.6 458.8,173.6 458.8,194.4 428,194.4 428,315.5 401.5,315.5 401.5,194.4 370.5,194.4 "/>
<path class="st0" d="M543.5,173.6H570v98.9c0,31.4-10.2,46.3-44.8,46.3c-35,0-45.2-15-45.2-46.3v-98.9h26.5v96.7
	c0,13.6,0.9,27.2,18.9,27.2c17.2,0,18.2-13.6,18.2-27.2L543.5,173.6z"/>
<path class="st0" d="M635.4,294.7c23.7,0,25.2-12.5,25.2-53.5c0-33.5-3.4-46.7-19.3-46.7h-17.4v100.2H635.4z M597.4,315.5V173.6
	h55.2c11.3,0.3,21.7,6.4,27.4,16.1c6.1,9.8,7.8,25.5,7.8,49c0,28,0,60.3-21.8,73c-5.9,3.4-13,3.8-19.7,3.8H597.4z"/>
<polygon class="st0" points="712.6,315.5 712.6,173.6 787.1,173.6 787.1,194.4 739.1,194.4 739.1,230.2 783.3,230.2 783.3,251 
	739.1,251 739.1,294.7 787.1,294.7 787.1,315.5 "/>
<path class="st0" d="M876.6,173.6h26.5v141.8h-27.6L854.8,265c-7-16.8-12.7-34.1-18.9-56.4h-0.4c0.9,11.7,2.1,26.1,2.8,40.5
	c0.8,14.2,1.3,28.4,1.3,39.7v26.7h-26.5V173.6h27.4l20.6,51.6c6.8,16.4,12.5,33.3,18.9,56.4h0.4c-0.9-12.9-1.9-26.7-2.7-40.3
	s-1.3-27.2-1.3-39.9L876.6,173.6z"/>
<polygon class="st0" points="928.6,173.6 1016.9,173.6 1016.9,194.4 986.1,194.4 986.1,315.5 959.6,315.5 959.6,194.4 928.6,194.4 
	"/>
<path class="st0" d="M1096.4,216.8c0.2-12.7-0.9-25.2-15.5-25.2c-8.9,0-14.6,3.6-14.6,13.2c0,10.8,6.8,14.9,15.1,20.2
	c8.7,5.5,24.8,16.1,32.2,23.3c9.1,8.9,11.9,17.4,11.9,29.7c0,26.9-17.8,40.9-43.7,40.9c-31.8,0-43.1-17.8-43.1-43.1v-10.4h26.5v8.3
	c-0.6,13.8,3.6,23.8,16.6,23.8c11.2,0,16.5-5.9,16.5-16.6c0-8.3-3.8-14-10.6-18.7c-13.8-10.8-31-18.5-41.8-32.7
	c-4.4-6.4-6.7-14-6.8-21.8c0-24.2,13.6-37.4,41.6-37.4c42.2,0,41,32.5,41.2,46.5L1096.4,216.8L1096.4,216.8z"/>
<path class="st0" d="M1151,216.2c8.1-1.1,12.7-6.4,12.1-18H1151v-24.6h22.9v22.5c0,16.8-5.3,25.9-22.9,28.8V216.2z"/>
<path class="st0" d="M337.4,343.9h26.5v98.9c0,31.4-10.2,46.3-44.8,46.3c-35,0-45.2-15-45.2-46.3v-98.9h26.5v96.6
	c0,13.6,0.9,27.2,18.9,27.2c17.2,0,18.2-13.6,18.2-27.2L337.4,343.9z"/>
<path class="st0" d="M453.9,343.9h26.5v141.9h-27.6l-20.6-50.5c-7-16.8-12.7-34-18.9-56.4h-0.4c1,11.7,2.1,26.1,2.8,40.5
	c0.8,14.2,1.3,28.4,1.3,39.7v26.7h-26.5V343.9h27.4l20.6,51.6c6.8,16.5,12.5,33.3,18.9,56.4h0.4c-0.9-12.9-1.9-26.7-2.6-40.3
	s-1.3-27.2-1.3-39.9L453.9,343.9L453.9,343.9z"/>
<rect x="511.6" y="343.9" class="st0" width="26.5" height="141.9"/>
<path class="st0" d="M595.2,436.9c0,11.7,1,30.8,19.1,30.8c18.9,0,19.1-19.5,19.1-33.1v-36.3c0-11.4,0.6-36.5-19.1-36.5
	c-20.8,0-19.1,24.8-19.1,35.7V436.9z M567.9,403.4c1.1-36.1,4-63,46.3-63s45.2,26.9,46.3,63v20.2c0,37.8-2.8,65.4-46.3,65.4
	s-46.3-27.6-46.3-65.4V403.4z"/>
<path class="st0" d="M749.3,343.9h26.5v141.9h-27.6l-20.6-50.5c-7-16.8-12.7-34-18.9-56.4h-0.4c0.9,11.7,2.1,26.1,2.8,40.5
	c0.8,14.2,1.3,28.4,1.3,39.7v26.7h-26.5V343.9h27.4l20.6,51.6c6.8,16.5,12.5,33.3,18.9,56.4h0.4c-1-12.9-1.9-26.7-2.7-40.3
	s-1.3-27.2-1.3-39.9L749.3,343.9z"/>
<polygon class="st0" points="214.7,3.4 109.6,315.5 59.1,64.1 "/>
<polygon class="st0" points="39.8,113 79.2,315.5 0,315.5 "/>
</svg>
